<svg width="688" height="486" viewBox="0 0 688 486" fill="none" xmlns="http://www.w3.org/2000/svg">
<g clip-path="url(#clip0_546_9)">
<path d="M185.59 135.51C183.53 131.2 184.44 125.64 187.77 122.21C191.1 118.78 196.62 117.7 200.99 119.62C200.85 109.96 207.8 101.59 215.56 95.8301C219.57 92.8601 224.06 90.26 229.02 89.7C235.55 88.97 242.08 91.96 246.95 96.37C251.82 100.78 255.29 106.51 258.49 112.25C260.49 108.89 265.22 107.5 268.73 109.23C272.24 110.96 273.99 115.57 272.54 119.2C280.28 117.92 288.38 124.48 288.73 132.32" fill="white"/>
<path d="M438.97 92.4101C440.69 88.8001 439.93 84.1501 437.15 81.2701C434.36 78.4001 429.74 77.4901 426.08 79.1001C426.19 71.0101 420.38 64.0001 413.88 59.1801C410.52 56.6901 406.76 54.5101 402.61 54.0501C397.14 53.4401 391.67 55.9401 387.59 59.6301C383.51 63.3201 380.61 68.1201 377.93 72.9301C376.25 70.1201 372.29 68.9501 369.36 70.4001C366.43 71.8501 364.95 75.7101 366.17 78.7501C359.69 77.6701 352.9 83.1701 352.61 89.7401" fill="white"/>
<path d="M116.75 192.93C118.11 190.07 117.51 186.4 115.31 184.13C113.11 181.86 109.45 181.14 106.55 182.42C106.64 176.02 102.04 170.48 96.9 166.67C94.25 164.7 91.27 162.98 87.99 162.61C83.66 162.13 79.34 164.1 76.12 167.02C72.89 169.94 70.6 173.73 68.48 177.53C67.15 175.31 64.02 174.38 61.7 175.53C59.38 176.68 58.21 179.73 59.18 182.13C54.05 181.28 48.69 185.63 48.46 190.82" fill="white"/>
<path d="M573.66 192.93C575.02 190.07 574.42 186.4 572.22 184.13C570.02 181.86 566.36 181.14 563.46 182.42C563.55 176.02 558.95 170.48 553.81 166.67C551.16 164.7 548.18 162.98 544.9 162.61C540.57 162.13 536.25 164.1 533.03 167.02C529.81 169.94 527.51 173.73 525.39 177.53C524.06 175.31 520.93 174.38 518.61 175.53C516.29 176.68 515.12 179.73 516.09 182.13C510.96 181.28 505.6 185.63 505.37 190.82" fill="white"/>
<path d="M499.9 224.58C499.9 222.01 497.82 219.92 495.24 219.92C492.66 219.92 490.58 222 490.58 224.58C490.58 227.16 492.66 229.24 495.24 229.24C497.82 229.24 499.9 227.15 499.9 224.58Z" fill="white"/>
<path d="M241.18 183.34C241.18 181.14 239.39 179.35 237.19 179.35C234.99 179.35 233.2 181.14 233.2 183.34C233.2 185.54 234.99 187.33 237.19 187.33C239.39 187.33 241.18 185.55 241.18 183.34Z" fill="white"/>
<path d="M269.78 140.11C269.78 137.54 267.7 135.45 265.12 135.45C262.54 135.45 260.46 137.53 260.46 140.11C260.46 142.68 262.54 144.77 265.12 144.77C267.7 144.77 269.78 142.68 269.78 140.11Z" fill="white"/>
<path d="M251.16 132.13C251.16 131.4 250.56 130.8 249.83 130.8C249.1 130.8 248.5 131.4 248.5 132.13C248.5 132.86 249.1 133.46 249.83 133.46C250.56 133.46 251.16 132.87 251.16 132.13Z" fill="white"/>
<path d="M396.81 148.1C398.649 148.1 400.14 146.61 400.14 144.77C400.14 142.931 398.649 141.44 396.81 141.44C394.971 141.44 393.48 142.931 393.48 144.77C393.48 146.61 394.971 148.1 396.81 148.1Z" fill="white"/>
<path d="M613.63 392.84C613.63 390.27 611.55 388.18 608.97 388.18C606.4 388.18 604.31 390.26 604.31 392.84C604.31 395.42 606.39 397.5 608.97 397.5C611.54 397.5 613.63 395.41 613.63 392.84Z" fill="white"/>
<path d="M121.47 291.75C121.47 290.28 120.28 289.09 118.81 289.09C117.34 289.09 116.15 290.28 116.15 291.75C116.15 293.22 117.34 294.41 118.81 294.41C120.28 294.41 121.47 293.22 121.47 291.75Z" fill="white"/>
<path d="M117.48 231.89C117.48 228.22 114.5 225.24 110.83 225.24C107.16 225.24 104.18 228.22 104.18 231.89C104.18 235.56 107.16 238.54 110.83 238.54C114.5 238.54 117.48 235.57 117.48 231.89Z" fill="white"/>
<g opacity="0.68">
<path opacity="0.68" d="M5.51994 479.3C-1.64006 471.19 -1.55006 447.7 4.13994 438.5C9.82994 429.3 21.8399 424.52 32.2999 427.31C27.3799 408.17 31.4099 387.87 37.3899 369.03C41.8199 355.05 47.5299 341.06 57.5099 330.3C72.8599 313.74 96.8099 307.01 119.32 308.78C141.83 310.55 163.1 319.91 182.5 331.46C195.38 281.42 209.81 228.63 247.12 192.89C294.7 147.3 373.91 142 430.14 176.33C486.37 210.66 517.62 279.54 512.12 345.19C532.74 343.13 554.81 346.25 571.25 358.87C587.69 371.48 596.55 395.17 587.83 413.97C630.71 404.14 678.62 434.91 687.52 477.99" fill="#A5CDF2"/>
</g>
<g opacity="0.24">
<path opacity="0.24" d="M5.51994 479.3C-1.64006 472.64 -1.55006 453.39 4.13994 445.84C9.82994 438.29 21.8399 434.38 32.2999 436.66C27.3799 420.96 31.4099 404.31 37.3899 388.86C41.8199 377.39 47.5299 365.92 57.5099 357.09C72.8599 343.51 96.8099 337.99 119.32 339.44C141.83 340.89 163.1 348.57 182.5 358.04C195.38 317 209.81 273.7 247.12 244.39C294.69 207.01 373.91 202.66 430.13 230.82C486.35 258.98 517.61 315.47 512.11 369.32C532.73 367.63 554.8 370.19 571.24 380.54C587.68 390.89 596.54 410.31 587.82 425.73C630.7 417.67 678.61 442.9 687.51 478.24" fill="#A5CDF2"/>
</g>
<g opacity="0.28">
<g opacity="0.28">
<g opacity="0.28">
<g opacity="0.28">
<path opacity="0.28" d="M269.57 370.83C265.64 378.72 261.61 386.57 257.46 394.35C252.76 403.18 247.92 411.94 242.92 420.61C249.94 439.36 255.56 458.62 259.7 478.21L306.85 478.1C306.85 478.11 292.45 425.98 269.57 370.83Z" fill="#4F6AFF"/>
<path opacity="0.28" d="M237.29 406.39C238.76 409.9 240.18 413.42 241.54 416.97C250.77 400.87 259.45 384.46 267.7 367.85C267.81 367.63 267.95 367.46 268.11 367.33C266.85 364.33 265.56 361.32 264.25 358.31C254.76 373.95 245.82 389.91 237.42 406.17C237.38 406.26 237.34 406.33 237.29 406.39Z" fill="#4F6AFF"/>
<path opacity="0.28" d="M183.96 425.23C188.68 433.8 193.46 442.36 197.28 451.39C200.62 459.29 203.54 467.89 203.44 476.58C208.61 469.39 213.62 462.09 218.47 454.68C225.83 443.43 232.87 431.95 239.61 420.32C229.77 394.33 217.22 369.38 202.27 345.96C193.26 331.85 183.37 318.32 172.67 305.46C172.62 305.47 172.57 305.49 172.52 305.49C165.31 306.24 158.13 307.19 150.98 308.35C145.35 309.27 139.75 310.32 134.17 311.49C135.68 316.49 137.8 321.14 140.56 325.17C159.86 353.38 133.31 342.9 118.29 350.41C117.36 350.87 116.41 351.47 115.45 352.2C126.71 356.65 136.17 364.34 144.74 372.74C160.48 388.19 173.34 405.95 183.96 425.23Z" fill="#4F6AFF"/>
<path opacity="0.28" d="M246.39 439.73C244.69 434.44 242.88 429.19 240.97 423.97C230.11 442.62 218.49 460.83 205.88 478.33L256.63 478.21C253.87 465.23 250.45 452.38 246.39 439.73Z" fill="#4F6AFF"/>
<path opacity="0.28" d="M170.36 302.71C159.73 290.16 148.31 278.28 136.18 267.15C131 279.66 130.03 295.13 133.36 308.58C145.59 306.03 157.94 304.08 170.36 302.71Z" fill="#4F6AFF"/>
<path opacity="0.28" d="M159.32 244.86C158.83 249.17 162.64 253.7 167.19 253.02C171.32 252.41 174.01 247.72 172.86 243.84C172.82 243.71 172.8 243.58 172.79 243.45C167.86 242.88 163.36 243.27 159.3 244.43C159.32 244.57 159.33 244.71 159.32 244.86Z" fill="#4F6AFF"/>
<path opacity="0.28" d="M192.7 448.47C188.8 440.03 184.21 431.94 179.73 423.8C174.51 414.33 168.57 405.26 161.97 396.69C155.45 388.23 148.27 380.24 140.53 372.88C132.85 365.58 124.33 358.88 114.37 355C113.83 354.79 113.52 354.37 113.41 353.91C102.84 363.79 93.8298 387.73 118.28 408.32C146.49 432.08 140.55 435.05 136.1 452.87C131.65 470.69 138.69 478.49 138.69 478.49L200.36 478.35C200.97 468 196.96 457.7 192.7 448.47Z" fill="#4F6AFF"/>
<path opacity="0.28" d="M137.54 264.3C151.99 277.48 165.45 291.74 177.78 306.92C199.79 334.01 218.29 363.94 232.67 395.75C233.73 398.1 234.77 400.45 235.78 402.82C243.93 387.12 252.6 371.7 261.78 356.58C262.13 356.01 262.67 355.81 263.18 355.87C239.71 302.6 208.88 250.65 175.99 243.96C176.99 249.34 173.15 255.2 167.6 256C161.63 256.86 156.01 251.39 156.26 245.48C147.91 248.86 141.64 255.71 137.49 264.25C137.5 264.27 137.52 264.28 137.54 264.3Z" fill="#4F6AFF"/>
</g>
<g opacity="0.28">
<path opacity="0.28" d="M227.78 479.1C227.78 479.1 206.63 447.1 183.83 418.61C177.4 426.32 171.19 434.21 165.21 442.26C165.18 442.3 165.15 442.33 165.13 442.36C174.68 453.54 183.69 465.17 192.14 477.21C192.42 477.61 192.33 478.01 192.07 478.27L227.78 479.1Z" fill="white"/>
<path opacity="0.28" d="M163.86 440.89C169.89 432.78 176.14 424.85 182.61 417.09C179.2 412.86 175.76 408.72 172.35 404.79C167.01 414.65 162.12 424.77 159.3 435.67C160.83 437.39 162.35 439.14 163.86 440.89Z" fill="white"/>
<path opacity="0.28" d="M190.48 478.18C186.96 473.16 183.34 468.22 179.63 463.34C178.54 461.91 177.44 460.5 176.34 459.08C176.27 459.09 176.2 459.1 176.12 459.1C161.47 459.08 146.7 458.83 132.26 461.61C131.05 461.84 130.54 460 131.75 459.76C145.95 457.02 160.45 457.14 174.85 457.17C164.36 443.9 153.12 431.21 141.23 419.18C141.05 420.6 140.4 421.73 139.11 422.48C127.79 429.08 126.85 405.5 107.04 414.93C87.2298 424.36 145.71 477.19 145.71 477.19L190.52 478.22C190.51 478.22 190.49 478.2 190.48 478.18Z" fill="white"/>
<path opacity="0.28" d="M151.08 426.67C153.33 429.07 155.56 431.51 157.76 433.96C160.72 423.15 165.65 413.07 171 403.25C156.12 386.29 142.1 373.67 134.39 375.34C116.66 379.19 138.61 403.83 141.06 416.31C144.45 419.71 147.8 423.16 151.08 426.67Z" fill="white"/>
</g>
</g>
</g>
</g>
<g opacity="0.28">
<g opacity="0.28">
<g opacity="0.28">
<g opacity="0.28">
<path opacity="0.28" d="M403.32 370.83C407.25 378.72 411.28 386.57 415.43 394.35C420.13 403.18 424.97 411.94 429.97 420.61C422.95 439.36 417.33 458.62 413.19 478.21L366.04 478.1C366.04 478.11 380.44 425.98 403.32 370.83Z" fill="#4F6AFF"/>
<path opacity="0.28" d="M435.6 406.39C434.13 409.9 432.71 413.42 431.35 416.97C422.12 400.87 413.44 384.46 405.19 367.85C405.08 367.63 404.94 367.46 404.78 367.33C406.04 364.33 407.33 361.32 408.64 358.31C418.13 373.95 427.07 389.91 435.47 406.17C435.51 406.26 435.55 406.33 435.6 406.39Z" fill="#4F6AFF"/>
<path opacity="0.28" d="M488.93 425.23C484.21 433.8 479.43 442.36 475.61 451.39C472.27 459.29 469.35 467.89 469.45 476.58C464.28 469.39 459.27 462.09 454.42 454.68C447.06 443.43 440.02 431.95 433.28 420.32C443.12 394.33 455.67 369.38 470.62 345.96C479.63 331.85 489.52 318.32 500.22 305.46C500.27 305.47 500.32 305.49 500.38 305.49C507.59 306.24 514.77 307.19 521.92 308.35C527.55 309.27 533.15 310.32 538.73 311.49C537.22 316.49 535.1 321.14 532.34 325.17C513.04 353.38 539.59 342.9 554.61 350.41C555.54 350.87 556.49 351.47 557.45 352.2C546.19 356.65 536.73 364.34 528.16 372.74C512.41 388.19 499.55 405.95 488.93 425.23Z" fill="#4F6AFF"/>
<path opacity="0.28" d="M426.49 439.73C428.19 434.44 430 429.19 431.91 423.97C442.77 442.62 454.39 460.83 467 478.33L416.25 478.21C419.02 465.23 422.44 452.38 426.49 439.73Z" fill="#4F6AFF"/>
<path opacity="0.28" d="M502.53 302.71C513.16 290.16 524.58 278.28 536.71 267.15C541.89 279.66 542.86 295.13 539.53 308.58C527.3 306.03 514.95 304.08 502.53 302.71Z" fill="#4F6AFF"/>
<path opacity="0.28" d="M513.57 244.86C514.06 249.17 510.25 253.7 505.7 253.02C501.57 252.41 498.88 247.72 500.03 243.84C500.07 243.71 500.09 243.58 500.1 243.45C505.03 242.88 509.53 243.27 513.59 244.43C513.56 244.57 513.55 244.71 513.57 244.86Z" fill="#4F6AFF"/>
<path opacity="0.28" d="M480.19 448.47C484.09 440.03 488.68 431.94 493.16 423.8C498.38 414.33 504.32 405.26 510.92 396.69C517.44 388.23 524.62 380.24 532.36 372.88C540.04 365.58 548.56 358.88 558.52 355C559.06 354.79 559.37 354.37 559.48 353.91C570.05 363.79 579.06 387.73 554.61 408.32C526.4 432.08 532.34 435.05 536.79 452.87C541.24 470.69 534.2 478.49 534.2 478.49L472.53 478.35C471.92 468 475.93 457.7 480.19 448.47Z" fill="#4F6AFF"/>
<path opacity="0.28" d="M535.35 264.3C520.9 277.48 507.44 291.74 495.11 306.92C473.1 334.01 454.6 363.94 440.22 395.75C439.16 398.1 438.12 400.45 437.11 402.82C428.96 387.12 420.29 371.7 411.11 356.58C410.76 356.01 410.22 355.81 409.71 355.87C433.18 302.6 464.01 250.65 496.9 243.96C495.9 249.34 499.74 255.2 505.29 256C511.26 256.86 516.88 251.39 516.63 245.48C524.98 248.86 531.25 255.71 535.4 264.25C535.39 264.27 535.37 264.28 535.35 264.3Z" fill="#4F6AFF"/>
</g>
<g opacity="0.28">
<path opacity="0.28" d="M445.11 479.1C445.11 479.1 466.26 447.1 489.06 418.61C495.49 426.32 501.7 434.21 507.68 442.26C507.71 442.3 507.74 442.33 507.76 442.36C498.21 453.54 489.2 465.17 480.75 477.21C480.47 477.61 480.56 478.01 480.82 478.27L445.11 479.1Z" fill="white"/>
<path opacity="0.28" d="M509.03 440.89C503 432.78 496.75 424.85 490.28 417.09C493.69 412.86 497.13 408.72 500.54 404.79C505.88 414.65 510.77 424.77 513.59 435.67C512.06 437.39 510.54 439.14 509.03 440.89Z" fill="white"/>
<path opacity="0.28" d="M482.41 478.18C485.93 473.16 489.55 468.22 493.26 463.34C494.35 461.91 495.45 460.5 496.55 459.08C496.62 459.09 496.69 459.1 496.77 459.1C511.42 459.08 526.19 458.83 540.63 461.61C541.84 461.84 542.35 460 541.14 459.76C526.94 457.02 512.44 457.14 498.04 457.17C508.53 443.9 519.77 431.21 531.66 419.18C531.84 420.6 532.49 421.73 533.78 422.48C545.1 429.08 546.04 405.5 565.85 414.93C585.66 424.36 527.18 477.19 527.18 477.19L482.37 478.22C482.38 478.22 482.39 478.2 482.41 478.18Z" fill="white"/>
<path opacity="0.28" d="M531.83 416.31C534.28 403.82 556.22 379.19 538.5 375.34C530.79 373.66 516.77 386.28 501.89 403.25C507.24 413.07 512.17 423.15 515.13 433.96C517.33 431.51 519.56 429.07 521.81 426.67C525.09 423.16 528.43 419.71 531.83 416.31Z" fill="white"/>
</g>
</g>
</g>
</g>
<g opacity="0.61">
<path opacity="0.61" d="M49.1299 479.3C51.9599 464.88 73.1899 450.51 87.4999 453.89C91.6299 437.47 113.99 428.96 127.99 438.46C132.56 421 138.23 401.95 153.36 392.13C170.59 380.93 194.61 386.41 210.51 399.43C226.41 412.45 236.05 431.4 245.25 449.78C246.7 445.15 253.25 443.95 257.48 446.34C261.71 448.73 264.09 453.34 266.15 457.74C289.22 446.3 305.63 422.42 308.06 396.79L350.94 387.71C355.06 405.39 359.76 424.13 372.88 436.67C386 449.21 410.51 451.49 420.7 436.46C422.96 433.13 424.6 428.99 428.24 427.27C435.38 423.89 442.23 432.27 445.75 439.34C452.09 426.94 472.05 424.92 480.75 435.78C487.95 411.11 514.38 393.64 539.9 396.68C565.42 399.72 587 422.91 588.21 448.58C605.09 442.09 633.38 460.58 638.39 477.96" fill="white"/>
</g>
<g opacity="0.79">
<path opacity="0.79" d="M310.97 407.38C309.4 410.92 308.44 414.73 308.14 418.59C308.1 419.17 308.07 419.78 308.29 420.33C308.8 421.61 310.51 422.03 311.81 421.59C313.11 421.15 314.09 420.09 315.02 419.07C315.71 432.22 321.98 444.98 331.97 453.56C332.47 453.99 333.05 454.43 333.7 454.36C334.24 454.3 334.68 453.91 335.06 453.53C344.49 444.26 349.52 430.7 348.43 417.52C350.76 419.03 353.99 416.49 354.2 413.72C354.42 410.95 352.75 408.43 351.15 406.16" fill="white"/>
</g>
<path d="M363 384.61V384.53V363.56H301.94V384.53V384.45C293.94 389.64 290.06 398.71 290.06 408.96H374.88C374.88 398.72 371 389.8 363 384.61Z" fill="#18004C"/>
<path d="M321.85 368.59C335.22 374.05 363 384.53 363 384.53V363.56H309.5C313.58 365.33 317.75 366.92 321.85 368.59Z" fill="#0A0A0A"/>
<path d="M388.08 285.13L411.17 312.15C416.78 318.72 419.36 327.36 418.25 335.93L411.97 384.73C411.53 388.16 408.31 390.53 404.9 389.93C401.88 389.4 399.74 386.7 399.9 383.64L401.07 361.62C401.79 348.09 392.51 336.07 379.25 333.34L388.08 285.13Z" fill="#FF3040"/>
<path d="M278.3 285.13L255.21 312.15C249.6 318.72 247.02 327.36 248.13 335.93L254.41 384.73C254.85 388.16 258.07 390.53 261.48 389.93C264.5 389.4 266.64 386.7 266.48 383.64L265.31 361.62C264.59 348.09 273.87 336.07 287.13 333.34L278.3 285.13Z" fill="#FF3040"/>
<path d="M402.84 302.4L388.08 285.13L379.26 333.33C381.87 333.87 384.32 334.78 386.58 335.97C391.78 324.67 397.15 313.46 402.84 302.4Z" fill="#CF0019"/>
<path d="M265.94 316.03C270.96 322.51 276.09 328.89 281.2 335.29C283.06 334.43 285.04 333.75 287.12 333.32L278.3 285.12L259.66 306.94C261.97 310.15 264.04 313.57 265.94 316.03Z" fill="#CF0019"/>
<path d="M289.65 356.4C289.65 356.4 275.39 319.74 276.07 281.05C276.75 242.36 267.25 156.83 294.4 101.16C310.6 67.9498 320.76 54.3098 326.32 48.7198C328.84 46.1898 333.01 46.4898 335.14 49.3498C343.67 60.7798 365.67 90.8298 371.1 103.88C377.89 120.17 393.5 151.4 388.07 285.12C388.07 285.12 385.35 334.67 375.85 356.4H289.65Z" fill="white"/>
<path opacity="0.37" d="M290.48 145.18C294.43 118.6 300.89 91.0498 316.91 68.9298C317.58 67.9998 318.37 67.3098 319.22 66.8298C323.27 60.2398 327.47 53.7398 331.48 47.1198C329.67 46.7998 327.74 47.2998 326.33 48.7198C320.77 54.3198 310.61 67.9598 294.41 101.16C267.26 156.82 276.76 242.35 276.08 281.05C275.4 319.74 289.66 356.4 289.66 356.4L376.58 356C291.93 355.07 285.08 279.15 283.97 237.14C283.15 206.44 285.97 175.53 290.48 145.18Z" fill="#95A1E6"/>
<path d="M360.11 101.88C363.79 102.46 367.46 103.14 371.11 103.91C371.11 103.9 371.1 103.89 371.1 103.89C365.66 90.8397 343.67 60.7997 335.14 49.3597C333 46.4997 328.83 46.1897 326.32 48.7297C320.76 54.3297 310.6 67.9697 294.4 101.17C294.05 101.88 293.74 102.62 293.4 103.34C315.11 97.9197 338.11 98.4097 360.11 101.88Z" fill="#FF3040"/>
<path d="M317.47 76.6999C323.89 68.2099 329.89 59.4199 336.32 50.9299C335.91 50.3799 335.51 49.8399 335.15 49.3499C333.01 46.4899 328.84 46.1799 326.33 48.7199C320.77 54.3199 310.61 67.9599 294.41 101.16C294.06 101.87 293.75 102.61 293.41 103.33C296.47 102.57 299.56 101.93 302.67 101.39C306.09 92.4099 311.65 84.3899 317.47 76.6999Z" fill="#CF0019"/>
<path d="M372.87 367.57H293.31C289.73 367.57 286.83 364.67 286.83 361.09C286.83 357.51 289.73 354.61 293.31 354.61H372.87C376.45 354.61 379.35 357.51 379.35 361.09C379.35 364.67 376.45 367.57 372.87 367.57Z" fill="#18004C"/>
<path d="M331.24 131.65C312.33 131.65 297.01 146.98 297.01 165.88C297.01 184.79 312.34 200.11 331.24 200.11C350.15 200.11 365.47 184.78 365.47 165.88C365.47 146.98 350.15 131.65 331.24 131.65ZM331.24 190.14C317.84 190.14 306.98 179.28 306.98 165.88C306.98 152.48 317.84 141.62 331.24 141.62C344.64 141.62 355.5 152.48 355.5 165.88C355.5 179.28 344.64 190.14 331.24 190.14Z" fill="#18004C"/>
<path opacity="0.37" d="M336.669 189.527C349.725 186.518 357.869 173.495 354.859 160.44C351.85 147.384 338.827 139.24 325.771 142.249C312.716 145.259 304.572 158.282 307.581 171.337C310.591 184.393 323.614 192.537 336.669 189.527Z" fill="#95A1E6"/>
<g opacity="0.6">
<path opacity="0.6" d="M307.07 167.58C307.94 180.19 318.42 190.15 331.25 190.15C333.25 190.15 335.19 189.88 337.05 189.42C326.95 182.27 316.96 174.99 307.07 167.58Z" fill="#FCFAF5"/>
<path opacity="0.6" d="M349.79 181.5C353.35 177.28 355.5 171.83 355.5 165.88C355.5 152.48 344.64 141.62 331.24 141.62C322.56 141.62 314.97 146.19 310.69 153.04C323.55 162.76 336.58 172.27 349.79 181.5Z" fill="#FCFAF5"/>
</g>
<path d="M333.55 136.74C333.55 135.46 332.51 134.43 331.24 134.43C329.96 134.43 328.93 135.47 328.93 136.74C328.93 138.02 329.97 139.05 331.24 139.05C332.52 139.05 333.55 138.02 333.55 136.74Z" stroke="#4F6AFF" stroke-width="0.3478" stroke-miterlimit="10"/>
<path d="M333.55 195.03C333.55 193.75 332.51 192.72 331.24 192.72C329.96 192.72 328.93 193.76 328.93 195.03C328.93 196.31 329.97 197.34 331.24 197.34C332.52 197.34 333.55 196.3 333.55 195.03Z" stroke="#4F6AFF" stroke-width="0.3478" stroke-miterlimit="10"/>
<path d="M353.48 146.91C354.38 146.01 354.38 144.54 353.48 143.64C352.58 142.74 351.11 142.74 350.21 143.64C349.31 144.54 349.31 146.01 350.21 146.91C351.12 147.82 352.58 147.82 353.48 146.91Z" stroke="#4F6AFF" stroke-width="0.3478" stroke-miterlimit="10"/>
<path d="M310.63 188.8C311.906 188.8 312.94 187.766 312.94 186.49C312.94 185.214 311.906 184.18 310.63 184.18C309.354 184.18 308.32 185.214 308.32 186.49C308.32 187.766 309.354 188.8 310.63 188.8Z" stroke="#4F6AFF" stroke-width="0.3478" stroke-miterlimit="10"/>
<path d="M360.38 168.2C361.66 168.2 362.69 167.16 362.69 165.89C362.69 164.61 361.65 163.58 360.38 163.58C359.1 163.58 358.07 164.62 358.07 165.89C358.07 167.16 359.11 168.2 360.38 168.2Z" stroke="#4F6AFF" stroke-width="0.3478" stroke-miterlimit="10"/>
<path d="M302.1 168.2C303.38 168.2 304.41 167.16 304.41 165.89C304.41 164.61 303.37 163.58 302.1 163.58C300.83 163.58 299.79 164.62 299.79 165.89C299.79 167.16 300.82 168.2 302.1 168.2Z" stroke="#4F6AFF" stroke-width="0.3478" stroke-miterlimit="10"/>
<path d="M350.21 188.13C351.11 189.03 352.58 189.03 353.48 188.13C354.38 187.23 354.38 185.76 353.48 184.86C352.58 183.96 351.11 183.96 350.21 184.86C349.31 185.76 349.31 187.22 350.21 188.13Z" stroke="#4F6AFF" stroke-width="0.3478" stroke-miterlimit="10"/>
<path d="M310.63 147.59C311.906 147.59 312.94 146.556 312.94 145.28C312.94 144.004 311.906 142.97 310.63 142.97C309.354 142.97 308.32 144.004 308.32 145.28C308.32 146.556 309.354 147.59 310.63 147.59Z" stroke="#4F6AFF" stroke-width="0.3478" stroke-miterlimit="10"/>
<path d="M275.73 214.92C275.73 214.92 333.09 195.49 386.75 213.99" stroke="#4F6AFF" stroke-width="0.6955" stroke-miterlimit="10" stroke-dasharray="5.56 5.56"/>
<path d="M282.74 131.47C298.78 127.25 339.91 118.86 380.33 130.55" stroke="#4F6AFF" stroke-width="0.6955" stroke-miterlimit="10" stroke-dasharray="5.56 5.56"/>
<path d="M275.73 228.8C275.73 228.8 333.09 209.37 386.75 227.87" stroke="#4F6AFF" stroke-width="0.6955" stroke-miterlimit="10" stroke-dasharray="5.56 5.56"/>
<g opacity="0.79">
<path opacity="0.79" d="M353.92 424.07C355.26 428.78 357.2 433.23 359.72 437.31C362.26 441.37 365.35 445.08 368.97 448.18C372.56 451.31 376.67 453.84 381.05 455.77C385.45 457.69 390.14 458.97 394.98 459.62C390.08 459.8 385.12 458.93 380.47 457.22C375.8 455.52 371.44 452.95 367.66 449.69C363.9 446.41 360.73 442.46 358.38 438.09C356.02 433.72 354.45 428.94 353.92 424.07Z" fill="white"/>
</g>
<g opacity="0.79">
<path opacity="0.79" d="M311.89 428.77C311.39 433.13 310.12 437.42 308.3 441.45C306.49 445.5 304.09 449.28 301.28 452.72C298.44 456.13 295.18 459.21 291.55 461.75C287.93 464.3 283.96 466.36 279.78 467.68C283.64 465.6 287.26 463.22 290.61 460.51C293.94 457.79 297.02 454.77 299.74 451.45C302.49 448.15 304.87 444.56 306.91 440.77C308.93 436.96 310.58 432.95 311.89 428.77Z" fill="white"/>
</g>
<g opacity="0.79">
<path opacity="0.79" d="M315.84 452.04C315.55 453.56 315.07 454.98 314.54 456.38C314.01 457.78 313.41 459.14 312.74 460.47C312.08 461.8 311.34 463.1 310.55 464.36C309.75 465.62 308.89 466.86 307.86 468C308.15 466.48 308.62 465.06 309.16 463.66C309.7 462.27 310.29 460.9 310.96 459.57C311.62 458.24 312.36 456.94 313.15 455.68C313.94 454.42 314.8 453.18 315.84 452.04Z" fill="white"/>
</g>
<g opacity="0.79">
<path opacity="0.79" d="M333.78 462.01C334.3 462.61 334.62 463.24 334.88 463.88C335.14 464.52 335.31 465.18 335.42 465.84C335.53 466.5 335.57 467.18 335.54 467.87C335.49 468.56 335.4 469.26 335.1 469.99C334.58 469.39 334.26 468.76 333.99 468.12C333.73 467.48 333.56 466.82 333.45 466.16C333.34 465.49 333.3 464.82 333.33 464.13C333.38 463.44 333.48 462.75 333.78 462.01Z" fill="white"/>
</g>
<g opacity="0.79">
<path opacity="0.79" d="M347.18 451.34L349.85 455.64C350.74 457.03 351.68 458.38 352.64 459.7C353.62 461.02 354.62 462.31 355.69 463.57L359 467.4C357.38 466.75 355.92 465.79 354.59 464.68C353.26 463.56 352.06 462.29 351.03 460.88C350 459.48 349.14 457.95 348.47 456.35C347.8 454.76 347.32 453.07 347.18 451.34Z" fill="white"/>
</g>
<path d="M157.538 420.255H238.828V414.385H157.538V420.255Z" fill="#18004C"/>
<path d="M205.18 483.71L237.7 420.48H157.77L125.25 483.71" stroke="#18004C" stroke-width="0.679" stroke-miterlimit="10"/>
<path d="M225.51 443.06H146.02" stroke="#18004C" stroke-width="0.679" stroke-miterlimit="10"/>
<path d="M211.51 470.16H132.02" stroke="#18004C" stroke-width="0.679" stroke-miterlimit="10"/>
<path d="M206.24 485.16L210.98 475.9L206.54 476.03L201.8 485.29L206.24 485.16Z" fill="#4F6AFF"/>
<path d="M127.21 485.16L131.95 475.9L127.51 476.03L122.77 485.29L127.21 485.16Z" fill="#4F6AFF"/>
<path d="M254.86 479.42L237.7 420.48" stroke="#18004C" stroke-width="0.679" stroke-miterlimit="10"/>
<path d="M175.15 479.42L157.99 420.48" stroke="#18004C" stroke-width="0.679" stroke-miterlimit="10"/>
<path d="M250.52 234.85C250.52 234.85 233.31 261.18 228.63 257.88C228.63 257.88 221.1 254.04 223.8 238.59C223.81 237.09 223.81 236.05 223.76 235.81C223.76 235.81 222.6 220.55 220.09 217.39C219.81 217.04 218.98 216.4 219.09 216.37C226.75 214.45 229.82 230.77 231.93 239.68C232.02 240.05 246.5 228.75 246.5 228.75C246.5 228.75 254.16 218.62 254.69 219.2C255.46 220.04 252.5 224.55 252.5 224.55C252.5 224.55 252.69 225.07 253.27 225.32C253.85 225.58 254.17 225.97 254.37 226.74C254.56 227.51 255.34 227.97 255.47 228.42C255.61 228.89 252.15 233.67 250.52 234.85Z" fill="#FEB38C"/>
<path d="M246.77 228.69C246.77 228.69 248.32 224.3 248.96 224.43C249.61 224.56 252.44 225.78 252.38 226.88C252.32 227.98 249.86 227.07 249.86 227.07C249.86 227.07 250.31 229.52 249.09 229.84C247.87 230.18 246.77 228.69 246.77 228.69Z" fill="#FEB38C"/>
<path d="M250.58 226.89C250.58 226.89 250.52 227.99 251.42 228.18C251.42 228.18 251.61 229.34 252.77 229.08C252.77 229.08 252.45 229.6 253.16 229.73C253.16 229.73 250.12 233.02 250.58 226.89Z" fill="#F79A88"/>
<path d="M250 224.75C250.61 224.96 251.22 225.2 251.82 225.46C252.13 225.6 252.4 225.7 252.72 225.92C252.87 226.03 253.03 226.17 253.11 226.42C253.2 226.67 253.08 226.97 252.92 227.11C252.28 227.62 251.55 227.63 250.9 227.61C250.74 227.59 250.55 227.58 250.54 227.6C250.52 227.53 250.54 227.76 250.56 227.91L250.62 228.88L250.59 228.89L250.41 227.94C250.4 227.79 250.28 227.61 250.42 227.46C250.57 227.35 250.75 227.4 250.9 227.39C251.53 227.39 252.23 227.34 252.71 226.92C252.82 226.81 252.88 226.66 252.84 226.51C252.8 226.36 252.68 226.24 252.56 226.15C252.31 225.96 252 225.84 251.72 225.68L250 224.79V224.75Z" fill="#EC7A65"/>
<path d="M252.59 224.45C252.57 224.6 252.54 224.72 252.48 224.83C252.43 224.94 252.34 225.02 252.27 225.12C252.17 225.19 252.09 225.28 251.98 225.33C251.87 225.39 251.74 225.43 251.59 225.45L251.57 225.43C251.89 225.08 252.22 224.75 252.57 224.42L252.59 224.45Z" fill="#EC7A65"/>
<path d="M253.9 226.07C253.75 226.39 253.56 226.68 253.33 226.94C253.11 227.21 252.84 227.43 252.58 227.66C252.29 227.86 252.02 228.06 251.68 228.21C251.51 228.28 251.31 228.34 251.1 228.31C250.9 228.27 250.72 228.15 250.64 227.98L250.66 227.96C250.88 228.24 251.29 228.18 251.56 228.01C251.85 227.84 252.12 227.64 252.39 227.43C252.93 227.02 253.42 226.56 253.87 226.05L253.9 226.07Z" fill="#EC7A65"/>
<path d="M251.38 228.18C251.53 228.54 251.73 228.92 251.99 229.01C252.24 229.11 252.55 228.99 252.82 228.77C253.11 228.58 253.38 228.29 253.67 228.03C253.95 227.77 254.26 227.52 254.57 227.27L254.59 227.29C254.35 227.6 254.09 227.9 253.83 228.19C253.57 228.48 253.3 228.77 252.99 229.01C252.68 229.23 252.25 229.43 251.87 229.22C251.51 229 251.42 228.57 251.35 228.19L251.38 228.18Z" fill="#EC7A65"/>
<path d="M252.72 228.89C252.79 229.12 252.93 229.32 253.03 229.51C253.09 229.6 253.16 229.68 253.22 229.72C253.23 229.74 253.32 229.75 253.41 229.75C253.6 229.73 253.77 229.74 254.03 229.66C254.3 229.64 254.44 229.66 254.69 229.52L254.71 229.54C254.57 229.74 254.32 229.84 254.09 229.89C253.87 229.97 253.63 230.05 253.38 230.02C253.26 230 253.13 229.99 253.04 229.89C252.95 229.8 252.9 229.69 252.85 229.58C252.76 229.36 252.69 229.12 252.69 228.88L252.72 228.89Z" fill="#EC7A65"/>
<path d="M202.21 227.37C202.21 227.37 192 226.16 193.24 225.54C194.48 224.92 203.01 221.72 204.68 220.77C206.35 219.82 207.49 219.96 207.49 219.96L219.58 191.92C219.79 190.27 216.8 186.32 215.36 185.5C211.4 183.23 206.51 182.91 202.05 183.83C187.49 186.86 164.34 197.26 156.6 204.74C156.6 204.74 191.55 237.91 202.89 236.32" fill="#18004C"/>
<path d="M154.27 202.3C161.81 198.57 169.52 195.19 177.37 192.16C183.75 189.7 190.23 187.39 196.88 185.76C199.23 185.18 201.67 184.62 204.11 184.6C204.66 184.6 204.67 183.74 204.11 183.74C199.13 183.77 194.02 185.53 189.33 187.02C181.8 189.41 174.41 192.29 167.15 195.41C162.66 197.34 158.22 199.39 153.84 201.56C153.34 201.8 153.77 202.55 154.27 202.3Z" fill="#18004C"/>
<path d="M204.16 198.19C204.17 198.41 203.99 198.59 203.77 198.59C202.85 198.59 200.73 198.39 200.43 200.79C200.13 203.22 202.44 204.58 203.83 204.66C204.23 204.68 205.16 204.76 205.43 205.06C206.27 205.97 206.66 207.96 207.31 210.44C208.73 215.92 204.43 218.42 204.43 218.42C204.43 218.42 218.78 225.48 218.65 218.4C218.65 218.4 217.52 205.39 217.58 205.32C218.7 204.2 223.05 203.72 220.32 194.44C217.79 185.85 211.48 186.46 209.88 186.74C208.53 187 203.83 187.29 204.16 198.19Z" fill="#FEB38C"/>
<path d="M214.32 185.91C214.32 185.91 205.51 197.56 203.98 198.52C203.97 198.53 197.96 184.31 214.32 185.91Z" fill="#18004C"/>
<path d="M201.48 201.49C201.48 201.49 202.92 198.45 204.75 202.53L201.48 201.49Z" fill="#EC7A65"/>
<path d="M212.14 198.2C213.33 198.17 214.32 199.12 214.34 200.31C214.37 201.5 213.42 202.49 212.23 202.51C211.04 202.54 210.05 201.59 210.03 200.4C210 199.22 210.95 198.23 212.14 198.2Z" fill="#F79A88"/>
<path d="M221.12 199.01C220.13 198.83 219.37 197.98 219.35 196.94C219.33 196.14 219.76 195.43 220.4 195.04C220.4 195.04 221.32 197.42 221.12 199.01Z" fill="#F79A88"/>
<path d="M219.31 197.9L216.02 199.54C216.02 199.54 217.63 200.71 218.5 200.07C219.37 199.42 219.31 197.9 219.31 197.9Z" fill="white"/>
<path d="M216.79 195.51L217.31 197.86L218.45 197.36C218.66 197.27 218.69 196.98 218.51 196.84L216.79 195.51Z" fill="#EC7A65"/>
<path d="M212.57 194.63C212.28 195.03 212.45 193.64 212.92 193.32C213.39 193 213.99 193.07 214.27 193.47C214.27 193.47 213.26 193.67 212.57 194.63Z" fill="#1E274D"/>
<path d="M218.77 192.28C219.24 192.41 218.24 191.43 217.68 191.47C217.11 191.51 216.69 191.95 216.72 192.43C216.72 192.44 217.64 191.97 218.77 192.28Z" fill="#1E274D"/>
<path d="M214.47 196.36C214.63 196.75 214.91 197.01 215.1 196.93C215.29 196.85 215.32 196.47 215.16 196.08C215 195.69 214.72 195.43 214.53 195.51C214.34 195.58 214.31 195.96 214.47 196.36Z" fill="#1E274D"/>
<path d="M217.51 194.91C217.66 195.29 217.93 195.53 218.11 195.46C218.29 195.39 218.32 195.02 218.17 194.65C218.02 194.27 217.75 194.03 217.57 194.1C217.39 194.17 217.36 194.53 217.51 194.91Z" fill="#1E274D"/>
<path d="M217.59 205.33C217.59 205.33 213.49 206.11 211.42 205.98C209.35 205.85 219.71 217.74 217.59 205.33Z" fill="#1E274D"/>
<path d="M212.9 187.01C213.14 189.79 211.4 192.66 209.59 194.66C207.89 196.54 205.29 198.01 202.68 197.73C202.13 197.67 202.13 198.53 202.68 198.59C205.5 198.89 208.36 197.29 210.2 195.26C212.15 193.1 214.01 190.01 213.76 187C213.71 186.46 212.85 186.45 212.9 187.01Z" fill="#18004C"/>
<path d="M207.39 207.67C207.39 208.69 206.56 209.52 205.54 209.52C204.52 209.52 203.69 208.69 203.69 207.67C203.69 206.65 204.52 205.82 205.54 205.82C206.56 205.82 207.39 206.65 207.39 207.67Z" fill="white"/>
<path d="M207.39 211.37C207.39 212.39 206.56 213.22 205.54 213.22C204.52 213.22 203.69 212.39 203.69 211.37C203.69 210.35 204.52 209.52 205.54 209.52C206.56 209.52 207.39 210.35 207.39 211.37Z" fill="white"/>
<path d="M208.09 203.61L205.49 207.34L203.05 203.46L208.09 203.61Z" fill="#4F6AFF"/>
<path d="M206.74 394.61L208.33 405.87C208.33 405.87 210.87 413.34 213.24 410.45C215.6 407.56 217.94 406.03 217.94 406.03L218.72 394.32L206.74 394.61Z" fill="#F5836B"/>
<path d="M212.92 395.03L213.33 410.35C213.33 410.35 205.86 411.47 208.63 406.47L207 395.85L212.92 395.03Z" fill="#FEB38C"/>
<path d="M180.93 394.89L177.43 406.12C177.43 406.12 174.76 408.46 173.8 408.4C172.05 408.29 171.13 405.27 171.13 405.27L170.84 394.89H180.93Z" fill="#F5836B"/>
<path d="M175.88 391.89L173.43 410.47C173.43 410.47 168.41 411.8 171.18 406.79L170.57 392.49L175.88 391.89Z" fill="#FEB38C"/>
<path d="M218.7 405.97L228.13 413.61C228.61 413.97 228.27 414.57 227.58 414.58L213.66 414.69C213.32 414.69 213.02 414.54 212.91 414.31L211.86 412.16C211.56 411.54 210.95 411.49 211.01 412.15L210.5 414.23C210.53 414.56 207.2 414.47 207.17 414.17C206.99 412.32 207.37 406.28 207.7 404.6C207.75 404.36 207.99 404.17 208.32 404.12C208.62 404.08 208.92 404.16 209.1 404.33C210.04 405.24 213.04 407.98 214.65 407.42C215.72 407.05 217.11 406.38 217.55 406C217.84 405.74 218.38 405.73 218.7 405.97Z" fill="#FF3040"/>
<path d="M171 404.88L165.64 413.85C165.07 414.72 165.39 415.76 166.42 416.38C168.09 417.38 169.46 419.37 170.52 419.39C172.42 419.44 175.38 417.44 177.11 416.69C178.27 416.19 179.17 415.45 179.03 414.48L177.7 405.48C177.68 405.37 177.49 405.33 177.39 405.42L175.34 407.28C174.67 407.89 172.85 407.81 172.39 407.08C172.07 406.56 171.31 404.88 171.31 404.88C171.24 404.78 171.06 404.79 171 404.88Z" fill="#FF3040"/>
<path d="M197.32 254.82C193.26 262 191.11 267.27 188.77 276.4C186.06 286.99 161.02 376.6 159.74 395.87C163.08 396.67 188.96 396.56 191.07 396.44C197.78 377.21 206.78 314.75 209.66 302.64C210.1 300.78 212.98 301.19 212.76 303.09C211.13 316.92 201.1 375.2 196.72 396.48C198.47 397.37 225.11 397.17 227.14 396.92C229.34 373.19 241.01 283.36 223.39 254.24C215.32 253.12 205.49 254.58 197.32 254.82Z" fill="#4F6AFF"/>
<path d="M221.7 255.41C221.7 255.41 229.51 275.15 229.51 300.22C229.51 325.28 220.75 396.1 220.75 396.1" stroke="white" stroke-width="0.314" stroke-miterlimit="10"/>
<path d="M165 395.71L201.29 256.57" stroke="white" stroke-width="0.314" stroke-miterlimit="10"/>
<path d="M206.32 257.27C206.32 257.27 206.08 280.23 195.77 278.42" stroke="white" stroke-width="0.314" stroke-miterlimit="10"/>
<path d="M227.7 279.47C217.4 281.28 218.83 256.74 218.83 256.74" stroke="white" stroke-width="0.314" stroke-miterlimit="10"/>
<path opacity="0.21" d="M223.54 255.6L190.09 282.84C190.09 282.84 189.91 265.39 195.8 254.33L223.54 255.6Z" fill="#1E274D"/>
<path d="M221.6 217.39C221.37 217.96 227.95 234.39 227.67 239.96C227.39 245.58 227.51 253.62 227.81 254.46C227.81 254.46 219.49 259.32 195.44 255.53C188.05 249.06 194.54 227.07 197.03 220.11C197.03 220.11 201.76 217.74 203.8 217.59C203.8 217.6 212.51 221.17 221.6 217.39Z" fill="#18004C"/>
<path d="M203.74 217.57L207.15 213.11C207.15 213.11 211.21 215.99 217.3 218.12L217.23 225.98C217.21 226.2 216.97 226.33 216.77 226.23C214.83 225.24 206.31 221.36 203.74 217.57Z" fill="white"/>
<path d="M218.12 212.87C218.12 212.87 219.13 216.47 217.22 217.95L219.89 225.67C220.08 226.26 220.51 226.24 220.58 225.93C221 223.96 221.77 219.69 221.25 217.13L218.12 212.87Z" fill="white"/>
<path d="M219.4 226.31C219.4 226.89 219.15 227.35 218.84 227.35C218.53 227.35 218.28 226.88 218.28 226.31C218.28 225.73 218.53 225.27 218.84 225.27C219.15 225.26 219.4 225.73 219.4 226.31Z" fill="white"/>
<path d="M219.68 230.76C219.68 231.34 219.43 231.8 219.12 231.8C218.81 231.8 218.56 231.33 218.56 230.76C218.56 230.18 218.81 229.72 219.12 229.72C219.43 229.72 219.68 230.19 219.68 230.76Z" fill="white"/>
<path d="M219.89 235.67C219.89 236.25 219.64 236.71 219.33 236.71C219.02 236.71 218.77 236.24 218.77 235.67C218.77 235.09 219.02 234.63 219.33 234.63C219.64 234.63 219.89 235.1 219.89 235.67Z" fill="white"/>
<path d="M219.34 242.13C219.649 242.13 219.9 241.665 219.9 241.09C219.9 240.516 219.649 240.05 219.34 240.05C219.031 240.05 218.78 240.516 218.78 241.09C218.78 241.665 219.031 242.13 219.34 242.13Z" fill="white"/>
<path d="M219.89 246.51C219.89 247.09 219.64 247.55 219.33 247.55C219.02 247.55 218.77 247.08 218.77 246.51C218.77 245.93 219.02 245.47 219.33 245.47C219.64 245.47 219.89 245.93 219.89 246.51Z" fill="white"/>
<path d="M219.34 252.96C219.649 252.96 219.9 252.494 219.9 251.92C219.9 251.345 219.649 250.88 219.34 250.88C219.031 250.88 218.78 251.345 218.78 251.92C218.78 252.494 219.031 252.96 219.34 252.96Z" fill="white"/>
<path d="M200.98 305.84L169.9 285.93L182.8 265.8L209.65 283C211.99 284.5 212.67 287.6 211.17 289.94L200.98 305.84Z" fill="#98CCFE"/>
<path d="M196.16 285.64C196.16 288 194.25 289.92 191.88 289.92C189.52 289.92 187.6 288.01 187.6 285.64C187.6 283.27 189.51 281.36 191.88 281.36C194.25 281.37 196.16 283.28 196.16 285.64Z" fill="white"/>
<path opacity="0.6" d="M189.96 269.76C189.96 269.76 184.95 272.09 188.82 286.29C189.02 287.04 189.2 287.9 189.05 288.66L188.18 294.76C188.05 295.41 187.96 296.29 188.52 296.66C189.21 297.12 193.17 300.76 193.65 300.92C194.63 301.25 193.56 296.42 193.72 293.88C193.75 293.43 193.86 295.49 193.92 296.39L194.04 298.37C195.22 297.83 195.2 295.55 195.38 294.78C195.63 293.75 195.43 293.09 195.31 292.84C194.77 291.72 193.74 289.48 193.58 287.47C193.49 286.29 194.31 281.9 195 273.74L189.96 269.76Z" fill="#1E274D"/>
<path d="M189.32 235.19C180.03 287.07 186.06 296.92 186.67 297.33C187.43 297.84 191.77 301.82 192.29 302C193.36 302.36 192.19 297.07 192.37 294.28C192.4 293.78 192.52 296.04 192.59 297.03L192.72 299.21C194.02 298.62 193.99 296.12 194.19 295.28C194.46 294.15 194.24 293.43 194.11 293.16C193.52 291.93 192.39 289.48 192.21 287.28C192.11 285.98 200.91 243.85 202.46 237.66C204.56 229.25 201.92 219.58 198.95 219.26C195.28 218.83 190.09 230.89 189.32 235.19Z" fill="#FEB38C"/>
<path d="M246.46 179.49H263.56L269.15 186.07V170.28C269.15 165.19 266.06 161.07 262.25 161.07H246.47C242.66 161.07 239.57 165.19 239.57 170.28C239.56 175.37 242.65 179.49 246.46 179.49Z" fill="#FF3040"/>
<path d="M255.54 167.83H252.64V174.6H255.54V167.83Z" fill="white"/>
<path d="M251.44 170.03H248.54V174.59H251.44V170.03Z" fill="white"/>
<path d="M259.97 165.8H257.07V174.59H259.97V165.8Z" fill="white"/>
<path d="M438.05 221.22C438.05 214.65 432.73 209.33 426.16 209.33C419.59 209.33 414.27 214.65 414.27 221.22C414.27 227.79 425.59 238.1 425.59 238.1C425.59 238.1 438.05 227.78 438.05 221.22Z" fill="#4F6AFF"/>
<path d="M425.59 238.1C425.59 238.1 438.06 227.79 438.06 221.22C438.06 214.65 432.74 209.33 426.17 209.33" fill="#18004C"/>
<path d="M422.71 232.72C422.71 232.72 424.24 220.25 422.52 221.02C420.79 221.79 419.83 223.71 421.75 224.09C423.67 224.47 431.34 224.09 431.34 224.09C431.34 224.09 432.02 221.91 430.76 221.4C428.84 220.63 428.84 227.92 428.46 233.1" stroke="white" stroke-width="0.3166" stroke-miterlimit="10"/>
<path d="M430.38 235.41H420.79C420.05 235.41 419.45 234.81 419.45 234.07C419.45 233.33 420.05 232.73 420.79 232.73H430.38C431.12 232.73 431.72 233.33 431.72 234.07C431.73 234.81 431.12 235.41 430.38 235.41Z" fill="#18293D"/>
<path d="M425.78 241.55C422.71 241.55 420.22 239.06 420.22 235.99V235.03H431.34V235.99C431.34 239.06 428.85 241.55 425.78 241.55Z" fill="#18293D" stroke="#EAEBEC" stroke-width="0.4326" stroke-miterlimit="10"/>
<path d="M404.72 221.29H410.13" stroke="white" stroke-width="0.8127" stroke-miterlimit="10" stroke-linecap="round"/>
<path d="M442.56 221.29H447.96" stroke="white" stroke-width="0.8127" stroke-miterlimit="10" stroke-linecap="round"/>
<path d="M411.06 206L414.88 209.83" stroke="white" stroke-width="0.8127" stroke-miterlimit="10" stroke-linecap="round"/>
<path d="M437.81 232.76L441.63 236.58" stroke="white" stroke-width="0.8127" stroke-miterlimit="10" stroke-linecap="round"/>
<path d="M426.34 199.67V205.08" stroke="white" stroke-width="0.8127" stroke-miterlimit="10" stroke-linecap="round"/>
<path d="M441.63 206L437.81 209.83" stroke="white" stroke-width="0.8127" stroke-miterlimit="10" stroke-linecap="round"/>
<path d="M414.88 232.76L411.06 236.58" stroke="white" stroke-width="0.8127" stroke-miterlimit="10" stroke-linecap="round"/>
<path d="M437.21 275.36C437 273.71 442.52 253.89 443.32 252.43C445.4 248.59 454.93 247.83 459.06 250.44C465.74 254.67 476.03 273.88 473.95 278.87L437.21 275.36Z" fill="#EF001D"/>
<path d="M457.34 264.03C457.33 264.25 457.51 264.43 457.73 264.43C458.65 264.43 460.77 264.23 461.07 266.64C461.37 269.07 459.05 270.44 457.66 270.52C457.26 270.54 456.33 270.62 456.05 270.92C455.21 271.83 454.82 273.83 454.17 276.31C452.74 281.8 457.06 284.31 457.06 284.31C457.06 284.31 442.68 291.38 442.81 284.29C442.81 284.29 443.95 271.25 443.88 271.18C442.76 270.06 438.4 269.57 441.14 260.28C443.68 251.67 450 252.28 451.6 252.57C452.96 252.81 457.67 253.1 457.34 264.03Z" fill="#FF9C75"/>
<path d="M457.72 263.85C457.71 264.07 457.89 264.25 458.11 264.25C459.03 264.25 461.15 264.05 461.45 266.46C461.75 268.89 459.43 270.26 458.04 270.34C457.64 270.36 456.71 270.44 456.43 270.74C455.59 271.65 455.2 273.65 454.55 276.13C453.12 281.62 457.44 284.13 457.44 284.13C457.44 284.13 443.06 291.2 443.19 284.11C443.19 284.11 444.33 271.07 444.26 271C443.14 269.88 438.78 269.39 441.52 260.1C444.06 251.49 450.38 252.1 451.98 252.39C453.34 252.63 458.05 252.92 457.72 263.85Z" fill="#FF9C75"/>
<path d="M448.03 251.22C448.03 251.22 450.77 263.65 454.14 264.94C457.87 266.37 457.52 260.44 457.92 264.29C457.92 264.3 464.65 246.02 448.03 251.22Z" fill="#EF001D"/>
<path d="M460.03 267.33C460.03 267.33 458.58 264.28 456.75 268.37L460.03 267.33Z" fill="#E6713E"/>
<path d="M449.34 264.04C448.15 264.01 447.16 264.96 447.13 266.15C447.1 267.34 448.05 268.33 449.24 268.36C450.43 268.39 451.42 267.44 451.45 266.25C451.48 265.05 450.54 264.06 449.34 264.04Z" fill="#FF8752"/>
<path d="M440.34 264.84C441.33 264.66 442.09 263.81 442.11 262.76C442.13 261.96 441.7 261.24 441.06 260.86C441.06 260.86 440.14 263.25 440.34 264.84Z" fill="#FF8752"/>
<path d="M445.21 260.43L444.31 263.63L443.16 263.13L445.21 260.43Z" fill="#E6713E"/>
<path d="M449.17 260.58C449.21 260.23 449.32 259.79 449.14 259.53C449 259.29 448.44 258.94 448.3 258.85C447.83 258.53 447.32 258.61 447.28 259.1C447.44 259.38 448.1 259.31 448.65 259.83C448.9 260.07 448.99 260.34 449.17 260.58Z" fill="black"/>
<path d="M442.59 257.9C442.3 257.98 442.86 257.51 443.27 257.38C443.63 257.23 444.15 257.34 444.36 257.38C444.92 257.49 445.18 257.9 444.74 258.22C444.27 258.56 443.72 257.58 442.59 257.9Z" fill="black"/>
<path d="M447.01 262.18C446.85 262.57 446.57 262.83 446.38 262.75C446.19 262.67 446.16 262.29 446.32 261.9C446.48 261.51 446.76 261.25 446.95 261.33C447.14 261.41 447.17 261.79 447.01 262.18Z" fill="black"/>
<path d="M443.96 260.73C443.81 261.11 443.54 261.35 443.35 261.28C443.17 261.21 443.14 260.84 443.29 260.47C443.44 260.09 443.71 259.85 443.9 259.92C444.08 259.99 444.11 260.36 443.96 260.73Z" fill="black"/>
<path d="M443.88 271.18C443.88 271.18 447.99 271.96 450.06 271.83C452.14 271.7 443.19 277 443.88 271.18Z" fill="black"/>
<path d="M442.52 263.84C442.52 263.84 442.11 265.47 442.82 265.74C444.09 266.22 445.22 265.24 445.22 265.24L442.52 263.84Z" fill="#FCFAF5"/>
<path d="M467 481.08C490.682 481.08 509.88 479.974 509.88 478.61C509.88 477.246 490.682 476.14 467 476.14C443.318 476.14 424.12 477.246 424.12 478.61C424.12 479.974 443.318 481.08 467 481.08Z" fill="#E5F1FF"/>
<path d="M446.14 460.98L444.65 471.59C444.65 471.59 442.25 478.62 440.03 475.9C437.81 473.18 435.6 471.74 435.6 471.74L434.87 460.71L446.14 460.98Z" fill="#FF7B4D"/>
<path d="M440.31 461.38L439.93 475.81C439.93 475.81 446.97 476.87 444.35 472.15L445.89 462.15L440.31 461.38Z" fill="#FF8752"/>
<path d="M481.59 460.16L484.89 470.74C484.89 470.74 487.4 472.94 488.31 472.89C489.96 472.79 490.82 469.94 490.82 469.94L491.09 460.16H481.59Z" fill="#FF7B4D"/>
<path d="M486.35 457.34L488.66 474.85C488.66 474.85 493.39 476.1 490.78 471.39L491.36 457.92L486.35 457.34Z" fill="#FF8752"/>
<path d="M434.86 471.68L425.98 478.88C425.53 479.22 425.85 479.79 426.5 479.79L439.61 479.9C439.93 479.9 440.21 479.76 440.31 479.54L441.3 477.51C441.59 476.92 442.15 476.88 442.1 477.5L442.58 479.46C442.55 479.77 445.69 479.68 445.72 479.4C445.89 477.66 445.53 471.97 445.22 470.38C445.18 470.15 444.94 469.97 444.63 469.93C444.35 469.89 444.07 469.97 443.9 470.13C443.02 470.99 440.18 473.56 438.68 473.04C437.67 472.69 436.36 472.06 435.95 471.7C435.68 471.46 435.17 471.46 434.86 471.68Z" fill="#4F6AFF"/>
<path d="M490.95 469.57L495.99 478.02C496.53 478.84 496.23 479.82 495.26 480.4C493.68 481.34 492.39 483.21 491.4 483.24C489.61 483.29 486.82 481.4 485.19 480.69C484.1 480.21 483.25 479.52 483.38 478.61L484.63 470.13C484.65 470.03 484.83 469.99 484.92 470.07L486.85 471.82C487.48 472.39 489.2 472.32 489.63 471.63C489.93 471.14 490.65 469.56 490.65 469.56C490.72 469.48 490.89 469.49 490.95 469.57Z" fill="#4F6AFF"/>
<path d="M464.19 320.77C468.26 327.97 470.42 333.24 472.76 342.4C475.47 353.02 490.62 442.73 491.9 462.04C488.55 462.85 483.48 462.49 481.37 462.37C474.64 443.1 454.71 380.83 451.83 368.69C451.39 366.82 448.5 367.23 448.73 369.14C450.37 383 447.81 439.33 446.49 462.7C444.74 463.59 436.35 463.43 434.32 463.18C432.12 439.4 420.42 349.37 438.08 320.19C446.15 319.07 456 320.53 464.19 320.77Z" fill="#1B1B25"/>
<path d="M439.13 323.35C439.13 323.35 431.94 341.15 431.94 366.26C431.94 391.37 436.61 455.13 436.61 455.13" stroke="white" stroke-width="0.3147" stroke-miterlimit="10"/>
<path d="M485.97 454.8L460.21 322.53" stroke="white" stroke-width="0.3147" stroke-miterlimit="10"/>
<path d="M455.17 323.23C455.17 323.23 455.41 346.24 465.74 344.42" stroke="white" stroke-width="0.3147" stroke-miterlimit="10"/>
<path opacity="0.21" d="M438.2 323.82L471.44 348.85C471.44 348.85 472.83 335.34 466.92 324.26L438.2 323.82Z" fill="black"/>
<path d="M433.75 345.48C444.08 347.29 442.42 324.4 442.42 324.4" stroke="white" stroke-width="0.3147" stroke-miterlimit="10"/>
<path d="M446.82 455.46L433.34 455.15" stroke="white" stroke-width="0.3147" stroke-miterlimit="10"/>
<path d="M491.24 455.46L479.06 455.13" stroke="white" stroke-width="0.3147" stroke-miterlimit="10"/>
<path d="M402.27 307.59C402.27 307.59 433.19 328.18 436.7 323.02C436.7 323.02 440.72 317.11 432.06 302.38C431.48 300.85 431.08 299.79 431.04 299.53C431.04 299.53 440.28 287.17 441.63 282.98C441.78 282.52 442.38 281.55 442.26 281.56C433.72 282.54 433.63 302.37 425.45 309.55C425.14 309.82 405.14 301.03 405.14 301.03C405.14 301.03 393.46 293.63 393.13 294.42C392.66 295.57 397.41 299.04 397.41 299.04C397.41 299.04 397.41 299.64 396.92 300.13C396.43 300.62 396.25 301.13 396.34 302C396.44 302.86 395.82 303.62 395.86 304.13C395.91 304.65 400.15 307.01 402.27 307.59Z" fill="#FF9C75"/>
<path d="M404.85 301.07C404.85 301.07 401.59 297.19 400.98 297.57C400.37 297.95 397.95 300.28 398.43 301.38C398.92 302.47 401.07 300.62 401.07 300.62C401.07 300.62 401.55 303.29 402.92 303.15C404.3 303 404.85 301.07 404.85 301.07Z" fill="#FF9C75"/>
<path d="M400.28 300.68C400.28 300.68 400.77 301.77 399.92 302.32C399.92 302.32 400.17 303.58 398.88 303.76C398.88 303.76 399.41 304.16 398.73 304.57C398.73 304.57 403.08 306.76 400.28 300.68Z" fill="#FF8752"/>
<path d="M400.07 298.3C399.67 298.89 399.25 299.45 398.8 300C398.6 300.28 398.31 300.54 398.17 300.79C398.02 301.08 398.03 301.21 398.22 301.29C398.72 301.5 399.44 301.33 400.08 301.13C400.25 301.11 400.39 300.96 400.73 301.05C400.91 301.13 400.96 301.32 400.96 301.41L400.99 301.67L401.04 302.73L401.01 302.74L400.83 301.7C400.78 301.54 400.81 301.31 400.66 301.24C400.5 301.19 400.34 301.3 400.17 301.36C399.52 301.6 398.79 301.83 398.1 301.58C397.93 301.51 397.79 301.35 397.78 301.16C397.77 300.97 397.85 300.8 397.94 300.65C398.13 300.35 398.4 300.12 398.63 299.85L400.06 298.3H400.07Z" fill="#E6713E"/>
<path d="M397.31 298.93C397.47 298.89 397.62 298.89 397.75 298.91C397.89 298.93 398 298.98 398.13 299.02C398.24 299.09 398.36 299.14 398.45 299.24C398.55 299.33 398.63 299.44 398.71 299.59L398.7 299.62C398.23 299.42 397.76 299.21 397.3 298.97L397.31 298.93Z" fill="#E6713E"/>
<path d="M396.6 301.1C396.97 301.19 397.33 301.28 397.67 301.39C398.02 301.49 398.36 301.62 398.71 301.7C399.04 301.82 399.41 301.92 399.73 302.02C399.89 302.07 400.05 302.09 400.19 302.06C400.34 302.05 400.51 301.98 400.6 301.81L400.63 301.82C400.51 302.21 400.04 302.32 399.69 302.26C399.32 302.2 398.97 302.1 398.61 302C397.9 301.78 397.22 301.48 396.58 301.12L396.6 301.1Z" fill="#E6713E"/>
<path d="M399.99 302.3C400.14 302.69 400.33 303.18 400 303.67C399.85 303.91 399.55 304.03 399.29 304.06C399.03 304.09 398.79 304.06 398.56 304C398.11 303.85 397.73 303.65 397.36 303.42C396.99 303.19 396.65 302.92 396.34 302.62L396.36 302.59C396.73 302.81 397.1 303.01 397.48 303.2C397.86 303.39 398.24 303.58 398.65 303.69C399.04 303.8 399.53 303.84 399.81 303.51C400.08 303.18 400.02 302.71 399.96 302.3H399.99Z" fill="#E6713E"/>
<path d="M398.89 303.53C399.04 303.76 399.15 304.03 399.16 304.32C399.17 304.46 399.18 304.61 399.11 304.79C399 305.01 398.84 305.1 398.71 305.18C398.44 305.36 398.08 305.32 397.85 305.32C397.73 305.3 397.59 305.3 397.42 305.25C397.26 305.19 397.16 305.08 397.07 304.97L397.08 304.94C397.31 305.08 397.56 305.08 397.83 305.04C398.09 305.03 398.35 305 398.58 304.9C398.69 304.84 398.81 304.78 398.86 304.67C398.91 304.56 398.93 304.43 398.94 304.3C398.95 304.04 398.94 303.78 398.85 303.54L398.89 303.53Z" fill="#E6713E"/>
<path d="M442.36 280.37C442.36 280.37 438.17 280.99 435.33 286.48C433.08 290.83 424.53 308.98 424.53 308.98L407.6 301.72L406.06 312.3C406.06 312.3 432.17 328.03 436.66 324.54C441.16 321.05 444.52 285.97 442.36 280.37Z" fill="white"/>
<path d="M443.12 280.07C443.36 280.64 433.49 300.3 433.77 305.89C434.05 311.52 437.9 321 437.6 321.84C437.6 321.84 441.97 325.29 466.08 321.49C473.49 315.01 466.98 292.97 464.49 285.99C464.49 285.99 457.93 285.05 455.15 281.66C455.14 281.67 444.42 289.98 443.12 280.07Z" fill="white"/>
<g opacity="0.37">
<path opacity="0.37" d="M466.35 291.87C469.04 301.3 471.97 316.33 466.07 321.49C450.85 323.89 443.5 323.4 440.15 322.71C449.09 312.6 457.97 302.44 466.35 291.87Z" fill="#95A1E6"/>
</g>
<path d="M447.04 325.37L432.45 307.55L416.92 307.68L428.83 324.1L435.85 325.1C436.29 325.11 447.04 325.37 447.04 325.37Z" fill="#4F6AFF"/>
<path d="M438.64 315.09V317.71L442.14 319.01L438.64 315.09Z" fill="#020F2B"/>
<path d="M453.67 328.93C441.58 326.36 434.18 323.49 432.8 323.01C432.01 322.74 429.72 321.67 429.73 321.32C429.75 320.53 434.36 322.6 434.19 322.41C434.02 322.22 428.52 320.39 428.51 319.75C428.51 318.8 434.61 320.95 434.71 320.98C436.29 321.46 428.8 319.15 428.64 318.49C428.48 317.84 431.97 318.65 432.1 318.68C432.1 318.68 435.05 319.56 435.16 319.36C435.27 319.16 429.38 315.63 430 315.25C430.62 314.87 435.13 316.99 436.19 317.4C437.25 317.81 438.88 317.96 439.29 317.71C439.64 317.5 439.28 315.78 438.58 315.11C438.58 315.11 441.26 316.3 442.51 317.71C443.17 318.45 443.8 319.48 443.8 319.48L453.91 321.45L453.67 328.93Z" fill="#FF9C75"/>
<path d="M459.46 293.2C459.46 293.2 458.03 283.9 462.78 284.66C470.82 285.94 480.01 304.29 476.49 328.67C475.35 336.59 443.25 328.87 443.25 328.87L445.31 317.28L462.07 320.06L459.46 293.2Z" fill="white"/>
<path d="M510.84 287.5C510.84 289.1 512.14 290.4 513.74 290.4C515.34 290.4 516.64 289.1 516.64 287.5C516.64 285.9 515.34 284.6 513.74 284.6C512.14 284.6 510.84 285.9 510.84 287.5Z" fill="#FF3040"/>
<path d="M520.99 280.72C524.133 280.72 526.68 278.172 526.68 275.03C526.68 271.887 524.133 269.34 520.99 269.34C517.848 269.34 515.3 271.887 515.3 275.03C515.3 278.172 517.848 280.72 520.99 280.72Z" fill="#FF3040"/>
<path d="M516.32 278.46L513.24 277.4C512.94 277.3 512.95 276.88 513.25 276.78L520.03 274.67C520.28 274.59 520.52 274.83 520.43 275.08L518.15 281.87C518.05 282.17 517.63 282.16 517.53 281.86L516.51 278.65C516.49 278.57 516.41 278.49 516.32 278.46Z" fill="#1E274D"/>
<path d="M493.16 302.46C492.77 302.6 497.26 309 503.04 312.34C503.04 312.34 529.57 337.12 534.42 335.31C539.27 333.5 561.1 285.82 549.14 283.69C549.14 283.69 546.02 281.44 543.84 284.26C541.65 287.08 535.09 290.66 524.89 314.24C524.89 314.24 510.04 306.57 508.36 305.69C508.36 305.69 504.94 297.52 504.37 298.85C503.8 300.18 505.13 303.79 505.13 303.79C505.13 303.79 496.58 297.33 495.44 297.9C494.3 298.47 493.16 302.46 493.16 302.46Z" fill="#FEB38C"/>
<path d="M529.52 305.72C536.76 291.8 542.09 286.51 543.83 284.26C546.02 281.44 549.13 283.69 549.13 283.69C557.15 285.11 549.98 307.01 542.92 321.84C538.74 316.24 534.3 310.84 529.52 305.72Z" fill="#F5836B"/>
<path d="M535.37 286.99C535.37 286.99 539.96 273.95 549.09 279.42C558.22 284.9 551.73 311.67 546.73 317.16L526.58 306.11L535.37 286.99Z" fill="#4F6AFF"/>
<path d="M533.43 291.44C534.9 290.1 536.79 288.29 538.73 288.78C539.58 289 540.41 289.42 540.96 290.09C542.06 291.43 541.87 293.47 541.07 295.01C540.27 296.55 538.97 297.77 537.88 299.12C535.49 302.08 534.07 305.81 533.86 309.61" stroke="#FBEFDF" stroke-width="0.2024" stroke-miterlimit="10"/>
<path d="M546.49 316.91C549.74 316.28 555.07 295.52 553.13 291.85C553.13 291.85 543.12 285.94 542.49 286.6C536 293.32 546.49 316.91 546.49 316.91Z" fill="#3054F2"/>
<path d="M526.64 478C526.64 476.38 549.42 475.07 577.53 475.07C605.63 475.07 628.42 476.38 628.42 478C628.42 479.62 605.64 480.93 577.53 480.93C549.42 480.92 526.64 479.61 526.64 478Z" fill="#E5F1FF"/>
<path d="M534.57 469.5L534.74 459.81L544.08 460.53L543.84 469.84L539.48 477.41L531.62 471.36L534.57 469.5Z" fill="#FEB38C"/>
<path d="M535.46 459.99L542.64 475.24C542.64 475.24 541.25 472.85 544.07 470.32V459.98H535.46V459.99Z" fill="#F5836B"/>
<path d="M533.09 468.84C533.09 468.84 535.55 471.61 538.72 474.02C540.61 475.45 543.42 469.34 544.3 468.58C544.48 468.42 544.72 468.56 544.75 468.84L545.85 478.84H518.21C517.89 478.84 517.55 478.49 517.63 478.08C519.09 470.65 533.09 468.84 533.09 468.84Z" fill="#18004C"/>
<path d="M529.72 477.11C529.72 477.11 528.64 472 525.01 471.05C525.01 471.05 519.29 472.93 517.94 477.24H545.53" stroke="white" stroke-width="0.4048" stroke-miterlimit="10"/>
<path d="M544.93 470.92L539.21 477.18" stroke="white" stroke-width="0.4048" stroke-miterlimit="10"/>
<path d="M578.89 470.76L576.02 461.43L586.07 461.07L588.22 470.94L584.51 477.41L576.65 471.36L578.89 470.76Z" fill="#FEB38C"/>
<path d="M578.17 461.43L586.43 472.92C586.43 472.92 586.3 473.29 589.12 470.77L585.89 461.08L578.17 461.43Z" fill="#F5836B"/>
<path d="M577.57 470.06C577.57 470.06 580.03 472.83 583.2 475.24C585.09 476.67 587.9 470.56 588.78 469.8C588.96 469.64 589.2 469.78 589.23 470.06L590.33 480.06H562.69C562.37 480.06 562.03 479.71 562.11 479.3C563.57 471.88 577.57 470.06 577.57 470.06Z" fill="#18004C"/>
<path d="M574.2 478.34C574.2 478.34 573.12 473.23 569.49 472.28C569.49 472.28 563.77 474.16 562.42 478.47H590.01" stroke="white" stroke-width="0.4048" stroke-miterlimit="10"/>
<path d="M589.41 472.15L583.69 478.41" stroke="white" stroke-width="0.4048" stroke-miterlimit="10"/>
<path d="M534.51 348.83C534.51 348.83 530.96 391.34 530.62 403.09C530.29 414.84 533.3 460.71 533.3 460.71L545.18 460.67C545.18 460.67 557.76 379.61 572.12 351.29L534.51 348.83Z" fill="#0A0A0A"/>
<path d="M539.41 453.44L541.29 399.6L549.64 368.11" stroke="white" stroke-width="0.3264" stroke-miterlimit="10"/>
<path d="M546.68 460.98L532.95 460.71L532.14 452.9H548.02L546.68 460.98Z" fill="#4F6AFF"/>
<path d="M534.48 348.83C534.48 348.83 542.7 384.27 551.05 409.34C557.79 429.6 575.66 461.6 575.66 461.6L587.61 461.08L574.92 409.94C574.15 406.92 573.67 403.83 573.47 400.71C572.73 388.94 575.15 365.15 576.16 349.9L534.48 348.83Z" fill="#18004C"/>
<path d="M581.14 453.71C581.41 452.9 564.72 404.45 564.72 398.26C564.72 392.07 564.99 370.8 564.99 370.8" stroke="white" stroke-width="0.3264" stroke-miterlimit="10"/>
<path d="M588.94 460.98L575.66 461.61L571.18 454.25L587.87 453.44L588.94 460.98Z" fill="#4F6AFF"/>
<path d="M566.61 274.93C566.61 274.93 585.18 276.83 586.34 292.2C587.51 307.57 579.78 371.33 579.78 371.33L529.17 368.1L533.94 295.83C534.13 291.91 535.34 288.11 537.44 284.83C539.38 281.8 541.65 278.36 542.95 278.2L563.77 272.85L566.61 274.93Z" fill="#4F6AFF"/>
<path d="M570.91 276.58C583.29 278.46 585.77 284.52 586.35 292.2C587.52 307.57 579.79 370.79 579.79 370.79L529.72 368.1" fill="#3054F2"/>
<path d="M561.8 277.88C560.59 281.82 559.05 285.67 557.2 289.35C554.71 294.31 551.26 299.32 545.99 301.04C543.71 301.79 541.27 301.85 538.95 302.44C536.63 303.03 534.27 304.34 533.43 306.58" stroke="#FBEFDF" stroke-width="0.2024" stroke-miterlimit="10"/>
<path d="M585.32 341.05C580.56 340.46 574.8 340.29 572.04 344.21C569.87 347.29 570.62 351.63 568.86 354.97C566.56 359.33 561.01 360.51 556.68 362.85C550.41 366.24 546.11 373.01 545.69 380.13" stroke="#FBEFDF" stroke-width="0.2024" stroke-miterlimit="10"/>
<path d="M532.28 366.99C540.22 363.98 548.16 358.93 550.99 350.93C551.16 350.44 551.32 349.9 551.17 349.4C551.02 348.91 550.61 348.55 550.19 348.26C547.64 346.47 544.3 346.05 541.8 344.18C540.79 343.42 539.96 342.46 538.97 341.68C535.66 339.12 530.57 339.21 527.36 341.9" stroke="#FBEFDF" stroke-width="0.2024" stroke-miterlimit="10"/>
<path d="M532.26 310.48C536.56 310.98 540.52 313.85 542.32 317.78C545.23 324.11 542.69 332.1 546.18 338.13C549.55 343.94 558.58 345.39 563.56 340.88C565.61 339.02 567 336.4 569.43 335.07C573.85 332.65 580.39 335.24 583.77 331.51" stroke="#FBEFDF" stroke-width="0.2024" stroke-miterlimit="10"/>
<path d="M560.77 261.03L566.2 275.5L562.16 277.52C555.97 279.81 550.37 278.36 549.5 275.8L550.33 267.16L559.01 259.3C559.01 259.3 560.35 260.25 560.51 260.6C560.68 260.94 560.77 261.03 560.77 261.03Z" fill="#FEB38C"/>
<path d="M559.01 259.3L550.33 267.16L550.04 270.25C550.04 270.25 557.31 272 560 260.42" fill="#F5836B"/>
<path d="M543.79 333.14L526.77 302.31C525.86 300.65 524.31 299.48 522.51 299.08L483.97 296.5C483.3 296.35 482.79 297.09 483.13 297.7L499.48 326.93C500.36 328.5 501.83 329.64 503.53 330.06L542.92 334.33C543.6 334.49 544.13 333.76 543.79 333.14Z" fill="#E5F1FF"/>
<path d="M542.41 335.34L527.05 305.83C526.14 304.17 523.58 302.61 521.78 302.21L480.98 299.65C480.31 299.5 479.8 300.24 480.14 300.85L496.49 330.08C497.37 331.65 498.84 332.79 500.54 333.21L541.55 336.52C542.22 336.7 542.75 335.96 542.41 335.34Z" fill="#18004C"/>
<path d="M533.28 314.05L525.45 316.79L535.88 318.82L533.28 314.05Z" fill="#000F30"/>
<path d="M534.79 328.95L498.27 326.89L500.3 330.68L537.26 333.04L534.79 328.95Z" fill="#FCFAF5"/>
<path d="M533.6 326.07C534.92 326.86 550.17 340.04 562.46 346.09C565.85 347.76 570.27 343.88 571.49 340.35L582.88 310.4L564.34 301.04C564.26 301.24 561 319.89 558.34 326.32C557.39 328.62 557.97 328.29 555.83 327.5L539.08 318.97C539.08 318.97 537.69 317.69 537.18 316.79C536.2 315.06 532.77 313.16 532.77 313.16L534.81 316.83C535.17 317.45 534.75 317.58 533.5 317.05L525.18 313.55C525.18 313.55 523.3 313.15 524.29 313.91C525.27 314.67 528.57 316.74 528.69 316.8C530.8 317.93 523.23 314.36 523.26 315.06C523.28 315.77 527.65 318.25 527.58 318.34C527.5 318.43 522.84 316.27 522.83 316.93C522.82 317.6 526.97 319.64 527.11 319.66C527.38 319.7 523.78 317.8 523.76 318.17C523.72 318.52 532.84 325.61 533.6 326.07Z" fill="#FEB38C"/>
<path d="M561.75 313.87C563.18 307.38 564.28 301.15 564.33 301.04L582.87 310.4L575.64 329.42C571.12 324.14 566.54 318.91 561.75 313.87Z" fill="#F5836B"/>
<path d="M563.85 341.45C565.54 340.35 569.66 339.01 571.16 341.12C569.62 344.41 565.59 347.63 562.45 346.08C561.97 345.85 561.49 345.6 561.01 345.34C561.43 343.82 562.3 342.47 563.85 341.45Z" fill="#F5836B"/>
<path d="M566.13 287.54C566.13 287.54 568.21 273.76 578.12 277.46C588.03 281.16 587.78 322.49 583.92 328.87L555.48 315.21L566.13 287.54Z" fill="#4F6AFF"/>
<path d="M569.27 277.76C568.4 285.46 569.35 293.61 573.45 300.18C577.54 306.76 585.19 311.41 592.89 310.56" stroke="#FBEFDF" stroke-width="0.2024" stroke-miterlimit="10"/>
<path d="M563.77 296.8C565.52 297.69 567.11 298.9 568.45 300.35C568.93 300.87 569.39 301.44 569.53 302.13C569.99 304.27 567.4 305.87 567.02 308.02C566.76 309.49 567.61 310.95 568.67 312.01C569.72 313.07 571.01 313.9 571.98 315.03C574.49 317.96 574.27 322.83 571.51 325.52" stroke="#FBEFDF" stroke-width="0.2024" stroke-miterlimit="10"/>
<path d="M586.19 318.9C584.99 317.97 583.19 317.93 581.95 318.79C579.77 320.31 579.93 323.52 578.98 326" stroke="#FBEFDF" stroke-width="0.2024" stroke-miterlimit="10"/>
<path d="M543.79 246.05C543.63 248.89 546.01 247.78 546.01 247.78C552.05 251.66 559.74 258.41 559.74 258.41C559.74 258.41 562.55 257.9 562.57 257.2C562.7 251.82 562.39 245.32 562.39 245.32C562.39 245.32 564.13 244.17 563.85 242.24C563.85 242.24 563.28 239.97 561.33 240.29C561.33 240.29 561.74 238.91 560.76 238.18C559.79 237.45 558.81 238.34 558.81 238.34C558.81 238.34 558.73 235.74 556.05 235.09C553.37 234.44 552.23 236.96 552.23 236.96C552.23 236.96 551.74 235.58 550.93 235.66C550.12 235.74 549.79 237.04 549.79 237.04C549.79 237.04 549.63 234.93 547.19 235.25C544.75 235.57 544.59 238.42 544.59 238.42C544.59 238.42 544.46 237.51 543.37 237.69C541.91 237.93 541.1 239.72 542.48 241.42C542.48 241.42 541.42 242.15 541.51 243.69C541.59 245.24 543.79 246.05 543.79 246.05Z" fill="#18004C"/>
<path d="M559.86 256.39C559.96 256.67 560.31 256.75 560.51 256.54C561.22 255.85 562.62 254.89 563.13 257.66C563.82 261.41 559.9 260.77 559.59 261.27C558.96 262.29 556.93 265.74 553.9 267.07C552.06 267.88 549.32 268.01 547.31 266.08C545.3 264.15 544.18 266.43 545.03 245.75C545.03 245.75 545.5 247.43 547.49 247.03C548.87 246.75 549.95 245.6 551.46 245.18C552.69 244.84 556.06 243.99 557.52 248.26C558.18 250.22 559.24 254.76 559.86 256.39Z" fill="#FEB38C"/>
<path d="M545.31 259.68C545.31 259.68 546.52 260.28 549.49 260.01C549.49 260.01 547.89 262.17 546.72 261.75C545.56 261.33 545.31 259.68 545.31 259.68Z" fill="white"/>
<path d="M562.54 257.38L560.47 258.94C560.47 258.94 561.25 255.17 562.54 257.38Z" fill="#F5836B"/>
<path d="M547.73 255.29C547.73 255.74 547.91 256.11 548.13 256.11C548.35 256.11 548.53 255.74 548.53 255.29C548.53 254.84 548.35 254.47 548.13 254.47C547.91 254.47 547.73 254.84 547.73 255.29Z" fill="#000F30"/>
<path d="M545.13 254.89C545.13 255.34 545.31 255.71 545.53 255.71C545.75 255.71 545.93 255.34 545.93 254.89C545.93 254.44 545.75 254.07 545.53 254.07C545.31 254.07 545.13 254.44 545.13 254.89Z" fill="#000F30"/>
<path d="M551.09 251.77C551.68 252.18 550.76 250.31 549.95 250.11C549.15 249.9 548.35 250.31 548.17 251.02C548.18 251.01 549.67 250.77 551.09 251.77Z" fill="#000F30"/>
<path d="M545.01 251.57C545.86 251.46 546.47 251.61 546.47 251.61C546.36 250.94 545.73 250.47 545 250.45" fill="#000F30"/>
<path d="M546.36 254.87L545.14 258.33C545.12 258.39 545.16 258.45 545.21 258.45L546.65 258.56C546.7 258.56 546.74 258.52 546.74 258.46L546.52 254.89C546.51 254.8 546.39 254.78 546.36 254.87Z" fill="#F5836B"/>
</g>
<g filter="url(#filter0_d_546_9)">
<rect x="432" y="101" width="100" height="100" rx="24" fill="white"/>
</g>
<g clip-path="url(#clip1_546_9)">
<path d="M506.388 173.777H504.669V141.981C504.669 141.091 503.948 140.37 503.058 140.37H496.613C495.723 140.37 495.001 141.091 495.001 141.981V173.777H491.779V152.723C491.779 151.833 491.057 151.112 490.167 151.112H483.722C482.832 151.112 482.111 151.833 482.111 152.723V173.777H478.888V158.631C478.888 157.741 478.167 157.02 477.277 157.02H470.832C469.942 157.02 469.22 157.741 469.22 158.631V173.777H465.998V162.498C465.998 161.608 465.276 160.887 464.387 160.887H457.941C457.051 160.887 456.33 161.608 456.33 162.498V173.777H454.611C453.721 173.777 453 174.499 453 175.389C453 176.279 453.721 177 454.611 177H506.388C507.278 177 507.999 176.279 507.999 175.389C507.999 174.499 507.278 173.777 506.388 173.777Z" fill="#18004C"/>
<path d="M454.611 156.623C464.668 156.623 475.573 153.011 485.319 146.453C492.952 141.317 499.315 134.755 503.267 128.036L504.832 133.876C505.025 134.596 505.956 135.218 506.805 135.016C507.671 134.809 508.175 133.902 507.944 133.042L505.306 123.195C505.075 122.336 504.192 121.825 503.332 122.056L493.485 124.694C492.626 124.925 492.116 125.808 492.346 126.668C492.576 127.527 493.459 128.038 494.319 127.807L500.663 126.107C496.976 132.514 490.882 138.825 483.52 143.779C474.3 149.984 464.034 153.4 454.611 153.4C453.721 153.4 453 154.122 453 155.012C453 155.901 453.721 156.623 454.611 156.623Z" fill="#4F6AFF"/>
</g>
<g filter="url(#filter1_d_546_9)">
<rect x="194" y="20" width="81" height="81" rx="20" fill="white"/>
</g>
<g clip-path="url(#clip2_546_9)">
<path d="M247.829 64.3833L234.513 63.44C234.178 63.4162 233.993 63.8214 234.231 64.0592L244.648 74.4759C246.883 72.2401 248.477 69.362 249.127 66.1422C249.3 65.2882 248.696 64.4718 247.829 64.3833Z" fill="white"/>
<path d="M231.406 64.5936L228.329 50.0562C228.181 49.3561 227.563 48.8833 226.887 48.8833C226.74 48.8833 226.591 48.9055 226.444 48.9523C219.809 51.0555 215 57.2627 215 64.5936C215 73.6546 222.345 80.9999 231.406 80.9999C235.937 80.9999 240.038 79.1635 243.007 76.1946L231.406 64.5936Z" fill="#18004C"/>
<path d="M238.802 41.0013C238.125 40.9929 237.458 41.0257 236.803 41.0971C235.934 41.1918 235.336 42.0161 235.517 42.8715L238.427 56.6198C238.527 57.0884 238.917 57.4392 239.393 57.4879L253.384 58.9155C254.247 59.0036 254.997 58.3282 255 57.4613L255 57.4448C255.021 48.4196 247.826 41.114 238.802 41.0013Z" fill="#4F6AFF"/>
</g>
<defs>
<filter id="filter0_d_546_9" x="392" y="86" width="180" height="180" filterUnits="userSpaceOnUse" color-interpolation-filters="sRGB">
<feFlood flood-opacity="0" result="BackgroundImageFix"/>
<feColorMatrix in="SourceAlpha" type="matrix" values="0 0 0 0 0 0 0 0 0 0 0 0 0 0 0 0 0 0 127 0" result="hardAlpha"/>
<feOffset dy="25"/>
<feGaussianBlur stdDeviation="20"/>
<feColorMatrix type="matrix" values="0 0 0 0 0 0 0 0 0 0 0 0 0 0 0 0 0 0 0.1 0"/>
<feBlend mode="normal" in2="BackgroundImageFix" result="effect1_dropShadow_546_9"/>
<feBlend mode="normal" in="SourceGraphic" in2="effect1_dropShadow_546_9" result="shape"/>
</filter>
<filter id="filter1_d_546_9" x="154" y="0" width="161" height="161" filterUnits="userSpaceOnUse" color-interpolation-filters="sRGB">
<feFlood flood-opacity="0" result="BackgroundImageFix"/>
<feColorMatrix in="SourceAlpha" type="matrix" values="0 0 0 0 0 0 0 0 0 0 0 0 0 0 0 0 0 0 127 0" result="hardAlpha"/>
<feOffset dy="20"/>
<feGaussianBlur stdDeviation="20"/>
<feColorMatrix type="matrix" values="0 0 0 0 0 0 0 0 0 0 0 0 0 0 0 0 0 0 0.25 0"/>
<feBlend mode="normal" in2="BackgroundImageFix" result="effect1_dropShadow_546_9"/>
<feBlend mode="normal" in="SourceGraphic" in2="effect1_dropShadow_546_9" result="shape"/>
</filter>
<clipPath id="clip0_546_9">
<rect width="687.52" height="438.29" fill="white" transform="translate(0 47)"/>
</clipPath>
<clipPath id="clip1_546_9">
<rect width="55" height="55" fill="white" transform="translate(453 122)"/>
</clipPath>
<clipPath id="clip2_546_9">
<rect width="40" height="40" fill="white" transform="translate(215 41)"/>
</clipPath>
</defs>
</svg>
